<?xml version="1.0" encoding="utf-8"?>
<!-- Generator: Adobe Illustrator 22.0.1, SVG Export Plug-In . SVG Version: 6.00 Build 0)  -->
<svg version="1.1" id="Warstwa_1" xmlns="http://www.w3.org/2000/svg" xmlns:xlink="http://www.w3.org/1999/xlink" x="0px" y="0px"
	 viewBox="0 0 691.9 219.3" style="enable-background:new 0 0 691.9 219.3;" xml:space="preserve">
<style type="text/css">
	.st0{fill:#0C9CBE;}
	.st1{fill:#F7B621;}
	.st2{fill:#FEFEFE;}
	.st3{fill:#FEFEFD;}
	.st4{font-family:'HandelGotD-Med';}
	.st5{font-size:84.2192px;}
	.st6{font-size:51.9169px;}
</style>
<g id="Pythony">
	<path class="st0" d="M108.3,84.5c11.1,0,22.2,0,33.4,0c2.3,0,3.7-0.1,3.7-3.1c0-2.9-1.2-3.3-3.6-3.3c-14.3,0.1-28.7,0-43,0.1
		c-3,0-4.3-0.5-4.1-3.9c0.5-7.6-0.4-15.2,0.7-22.9c1-7.5,5.1-12.5,11.9-15.4c8.2-3.5,17-4.5,25.8-5.2c13-1,26-0.7,38.8,2
		c15.6,3.3,23.9,13.7,23.9,29.6c0,14.2,0.1,28.4,0,42.6c-0.1,13.7-7.2,23.8-19,27c-3,0.8-6.1,0.8-9.2,0.8
		c-16.2,0.1-32.4-0.4-48.6,0.3c-17.7,0.8-30,14.3-30.4,32.1c-0.1,6.3-0.1,12.6,0,18.9c0.1,2.7-0.9,3.5-3.4,3.3
		c-3.6-0.2-7.2-0.2-10.8,0c-17.6,0.9-24.7-9.6-28.4-21c-6.3-19.3-6.5-38.9-0.8-58.5c4.2-14.5,15.9-23.3,31.2-23.6c0.3,0,0.5,0,0.8,0
		C87.4,84.5,97.8,84.5,108.3,84.5z"/>
	<path class="st1" d="M588.8,85.3c-12.3,0-24.6,0-37,0c-2.3,0-3.7-0.1-3.7-3.1c0-3,1.2-3.4,3.8-3.4c14.2,0.1,28.4-0.1,42.6,0.1
		c3.3,0,4.2-1,4-4.1c-0.2-4-0.3-8,0-12c0.9-12.4-5.1-20.7-15.8-25.4c-23-10.1-46.2-10.4-69.2,0.1c-10.6,4.8-16.3,13.1-15.9,25.5
		c0.5,14.3,0.1,28.6,0.1,43c0,16.5,11,27.5,27.4,27.5c15.5,0,31.1,0,46.6,0c19.1,0.1,32.8,13.7,33,32.9c0.1,6,0.1,12.1,0,18.1
		c-0.1,2.7,0.6,3.9,3.6,3.7c5.9-0.3,11.8,0,17.7-0.4c8.4-0.4,14.1-5.1,18-12.2c4.8-8.9,6.4-18.7,8-28.4c2.4-15.6,0-30.6-6.3-45.1
		c-6-13.7-12.8-17.3-25.1-16.9C609.9,85.5,599.4,85.3,588.8,85.3z"/>
	<path class="st2" d="M126.1,55.8c-0.1,5.3-4.1,9.4-9.3,9.4c-5.2,0-9.3-4.1-9.3-9.4c0-5.4,4.3-9.8,9.6-9.7
		C122,46.2,126.1,50.5,126.1,55.8z"/>
	<path class="st3" d="M576.5,42.7c-5.2,0-9.4,4.1-9.5,9.4c-0.1,5.2,4.5,9.9,9.7,9.7c5.1-0.1,9.4-4.5,9.3-9.7
		C585.9,46.8,581.8,42.7,576.5,42.7z"/>
</g>
<text transform="matrix(1 0 0 1 201.2473 115.9627)" class="st4 st5">PyCode</text>
<text transform="matrix(1 0 0 1 111.1931 181.6853)" class="st4 st6">CONFERENCE 2018</text>
</svg>
