<svg width="130" height="31" viewBox="0 0 130 31" fill="none" xmlns="http://www.w3.org/2000/svg">
<rect width="11.3068" height="11.5395" rx="3" transform="matrix(0.707106 0.707108 -0.707106 0.707108 22.0684 7.29028)" fill="url(#paint0_linear_3249_3429)"/>
<path fill-rule="evenodd" clip-rule="evenodd" d="M28.6487 14.3246L16.504 2.17996C15.9021 1.57798 14.9261 1.57798 14.3241 2.17996L2.1794 14.3246C1.57742 14.9266 1.57742 15.9026 2.17939 16.5046L14.3241 28.6493C14.9261 29.2513 15.9021 29.2513 16.504 28.6493L28.6487 16.5046C29.2507 15.9026 29.2507 14.9266 28.6487 14.3246ZM17.049 1.63497C16.1461 0.732 14.6821 0.731999 13.7791 1.63497L1.63441 13.7797C0.731438 14.6826 0.731437 16.1466 1.63441 17.0496L13.7791 29.1943C14.6821 30.0972 16.1461 30.0972 17.049 29.1943L29.1937 17.0496C30.0967 16.1466 30.0967 14.6826 29.1937 13.7797L17.049 1.63497Z" fill="#2E3A4A"/>
<path fill-rule="evenodd" clip-rule="evenodd" d="M40.6623 15.4146L28.5176 3.26993L16.3729 15.4146L28.5176 27.5593L40.6623 15.4146ZM30.1525 1.63497C29.2496 0.732 27.7856 0.731999 26.8826 1.63497L14.7379 13.7797C13.835 14.6826 13.835 16.1466 14.7379 17.0496L26.8826 29.1943C27.7856 30.0972 29.2496 30.0972 30.1525 29.1943L42.2972 17.0496C43.2002 16.1466 43.2002 14.6826 42.2972 13.7797L30.1525 1.63497Z" fill="#2E3A4A"/>
<path d="M50.5449 8.03033H52.4795V4.15341H52.5001L54.0539 8.03033H55.0315L56.5853 4.15341H56.6059V8.03033H58.5405V0.94458H56.2869L54.5581 5.26689H54.5376L52.7985 0.94458H50.5449V8.03033Z" fill="#2E3A4A"/>
<path d="M61.4997 8.03033H63.5887L66.0686 0.94458H64.0826L62.5596 5.69204H62.5391L61.0058 0.94458H59.0198L61.4997 8.03033Z" fill="#2E3A4A"/>
<path d="M66.5532 8.03033H68.5289V5.98559H69.6608C71.297 5.98559 72.2746 5.09481 72.2746 3.47521C72.2746 1.85561 71.297 0.94458 69.6608 0.94458H66.5532V8.03033ZM68.5289 4.25464V2.67553H69.4859C70.0313 2.67553 70.2988 2.92859 70.2988 3.44484C70.2988 3.98133 69.9593 4.25464 69.455 4.25464H68.5289Z" fill="#2E3A4A"/>
<path d="M50.7168 29.7602H55.8677V19.2667H55.9225L60.0596 29.7602H62.6624L66.7996 19.2667H66.8544V29.7602H72.0052V10.5815H66.005L61.4021 22.2805H61.3473L56.717 10.5815H50.7168V29.7602Z" fill="#2E3A4A"/>
<path d="M74.0759 25.6779C74.0759 28.4999 75.939 30.1712 79.0898 30.1712C80.7337 30.1712 82.131 29.5137 82.6516 28.4999H82.7064V29.7602H87.0901V20.39C87.0901 16.9653 84.4873 14.6638 80.6241 14.6638C77.2815 14.6638 74.5143 16.8831 74.0759 19.8421L78.5145 20.7462C78.761 19.2941 79.4186 18.6092 80.6241 18.6092C81.6927 18.6092 82.2406 18.9379 82.2406 19.5681C82.2406 20.2531 81.4735 20.6366 78.9254 21.2668C75.6103 22.0613 74.0759 23.4586 74.0759 25.6779ZM82.2954 24.6368C82.2954 25.4861 81.2269 26.2533 80.131 26.2533C79.309 26.2533 78.898 25.9793 78.898 25.4039C78.898 24.8286 79.3364 24.4998 80.6515 24.0888C81.7475 23.7326 82.1036 23.5134 82.2406 23.1573H82.2954V24.6368Z" fill="#2E3A4A"/>
<path d="M98.9968 19.2941V15.2392H95.5172V11.4034H90.3937V15.2392H87.7361V19.2941H90.3937V24.4176C90.3937 27.952 92.202 29.7602 96.0652 29.7602H98.4488V25.1025H96.8049C95.9008 25.1025 95.5172 24.719 95.5172 23.8422V19.2941H98.9968Z" fill="#2E3A4A"/>
<path d="M99.6815 22.4997C99.6815 27.0752 102.887 30.3356 107.161 30.3356C109.024 30.3356 110.586 29.815 111.819 28.7739C113.079 27.7054 113.846 26.3081 114.148 24.5272L109.408 23.6504C109.161 24.9929 108.367 25.7327 107.189 25.7327C105.682 25.7327 104.805 24.5546 104.805 22.4997C104.805 20.4448 105.682 19.2667 107.189 19.2667C108.367 19.2667 109.161 20.0065 109.408 21.349L114.148 20.4722C113.846 18.6914 113.079 17.294 111.819 16.2529C110.586 15.1844 109.024 14.6638 107.161 14.6638C102.887 14.6638 99.6815 17.9242 99.6815 22.4997Z" fill="#2E3A4A"/>
<path d="M115.725 29.7602H120.849V21.349C120.849 20.1435 121.643 19.3489 122.931 19.3489C124.109 19.3489 124.876 20.1161 124.876 21.349V29.7602H130V20.1983C130 18.5818 129.506 17.294 128.548 16.3077C127.589 15.3214 126.301 14.8282 124.712 14.8282C123.095 14.8282 121.671 15.431 120.903 16.4995H120.849V9.75952H115.725V29.7602Z" fill="#2E3A4A"/>
<defs>
<linearGradient id="paint0_linear_3249_3429" x1="10.3183" y1="7.13597e-06" x2="0.388367" y2="0.310804" gradientUnits="userSpaceOnUse">
<stop stop-color="#068174"/>
<stop offset="1" stop-color="#13BD96"/>
</linearGradient>
</defs>
</svg>
